<svg width="52" height="56" viewBox="0 0 52 56" fill="none" xmlns="http://www.w3.org/2000/svg">
<g filter="url(#filter0_d_0_35)">
<path d="M26 0C14.3689 0 4.90625 9.46266 4.90625 21.0938C4.90625 22.3827 4.90625 32.3539 4.90625 32.5312C4.90625 34.8575 6.79878 36.75 9.125 36.75H10.7731C11.3536 38.3867 12.9167 39.5625 14.75 39.5625C17.0762 39.5625 18.9688 37.67 18.9688 35.3438V23.9062C18.9688 21.58 17.0762 19.6875 14.75 19.6875C12.9167 19.6875 11.3536 20.8633 10.7731 22.5H9.125C8.63197 22.5 8.15891 22.5858 7.71875 22.7419V21.0938C7.71875 11.0135 15.9197 2.8125 26 2.8125C36.0803 2.8125 44.2812 11.0135 44.2812 21.0938V22.7419C43.8411 22.5858 43.368 22.5 42.875 22.5H41.2269C40.6464 20.8633 39.0833 19.6875 37.25 19.6875C34.9238 19.6875 33.0312 21.58 33.0312 23.9062V35.3438C33.0312 37.67 34.9238 39.5625 37.25 39.5625C37.6757 39.5625 38.0867 39.4986 38.4745 39.3807C37.9484 41.1115 36.338 42.375 34.4375 42.375H29.9769C29.3964 40.7383 27.8333 39.5625 26 39.5625C23.6738 39.5625 21.7812 41.455 21.7812 43.7812C21.7812 46.1075 23.6738 48 26 48C27.8333 48 29.3964 46.8242 29.9769 45.1875H34.4375C38.3145 45.1875 41.4688 42.0333 41.4688 38.1562V36.75H42.875C45.2012 36.75 47.0938 34.8575 47.0938 32.5312C47.0938 32.3565 47.0938 22.3817 47.0938 21.0938C47.0938 9.46266 37.6311 0 26 0ZM13.3438 23.9062C13.3438 23.1308 13.9746 22.5 14.75 22.5C15.5254 22.5 16.1562 23.1308 16.1562 23.9062V35.3438C16.1562 36.1192 15.5254 36.75 14.75 36.75C13.9746 36.75 13.3438 36.1192 13.3438 35.3438V23.9062ZM9.125 25.3125H10.5312V33.9375H9.125C8.34959 33.9375 7.71875 33.3067 7.71875 32.5312V26.7188C7.71875 25.9433 8.34959 25.3125 9.125 25.3125ZM26 45.1875C25.2246 45.1875 24.5938 44.5567 24.5938 43.7812C24.5938 43.0058 25.2246 42.375 26 42.375C26.7754 42.375 27.4062 43.0058 27.4062 43.7812C27.4062 44.5567 26.7754 45.1875 26 45.1875ZM38.6562 35.3438C38.6562 36.1192 38.0254 36.75 37.25 36.75C36.4746 36.75 35.8438 36.1192 35.8438 35.3438V23.9062C35.8438 23.1308 36.4746 22.5 37.25 22.5C38.0254 22.5 38.6562 23.1308 38.6562 23.9062V35.3438ZM44.2812 32.5312C44.2812 33.3067 43.6504 33.9375 42.875 33.9375H41.4688V25.3125H42.875C43.6504 25.3125 44.2812 25.9433 44.2812 26.7188V32.5312Z" fill="#156963"/>
</g>
<defs>
<filter id="filter0_d_0_35" x="-2" y="0" width="56" height="56" filterUnits="userSpaceOnUse" color-interpolation-filters="sRGB">
<feFlood flood-opacity="0" result="BackgroundImageFix"/>
<feColorMatrix in="SourceAlpha" type="matrix" values="0 0 0 0 0 0 0 0 0 0 0 0 0 0 0 0 0 0 127 0" result="hardAlpha"/>
<feOffset dy="4"/>
<feGaussianBlur stdDeviation="2"/>
<feComposite in2="hardAlpha" operator="out"/>
<feColorMatrix type="matrix" values="0 0 0 0 0 0 0 0 0 0 0 0 0 0 0 0 0 0 0.25 0"/>
<feBlend mode="normal" in2="BackgroundImageFix" result="effect1_dropShadow_0_35"/>
<feBlend mode="normal" in="SourceGraphic" in2="effect1_dropShadow_0_35" result="shape"/>
</filter>
</defs>
</svg>
